<?xml version="1.0" standalone="no"?>
<!DOCTYPE svg PUBLIC "-//W3C//DTD SVG 20010904//EN"
 "http://www.w3.org/TR/2001/REC-SVG-20010904/DTD/svg10.dtd">
<svg version="1.0" xmlns="http://www.w3.org/2000/svg"
 width="336.000000pt" height="118.000000pt" viewBox="0 0 336.000000 118.000000"
 preserveAspectRatio="xMidYMid meet">

<g transform="translate(0.000000,118.000000) scale(0.100000,-0.100000)"
fill="#000000" stroke="none">
<path d="M250 833 c-1 -5 -2 -63 -3 -131 -2 -121 -2 -122 21 -122 21 0 22 3
22 105 l0 105 45 0 c35 0 51 -6 80 -31 69 -61 69 -148 -1 -209 -33 -28 -39
-30 -121 -30 l-86 0 23 -25 c20 -21 33 -25 82 -25 97 0 174 54 198 138 12 46
12 48 0 94 -24 85 -101 138 -200 138 -33 0 -60 -3 -60 -7z"/>
<path d="M674 830 c-31 -12 -72 -66 -80 -105 -8 -44 11 -100 43 -125 37 -29
47 -25 21 11 -44 59 -24 144 40 175 30 14 41 14 75 4 107 -32 137 -151 59
-233 -69 -72 -219 -52 -273 37 -24 40 -25 26 0 -22 34 -67 93 -102 171 -102
65 0 108 18 147 63 28 32 53 90 53 122 0 56 -56 142 -111 171 -30 15 -111 18
-145 4z"/>
<path d="M1017 833 c-4 -3 -7 -73 -7 -154 0 -122 -3 -149 -15 -157 -13 -7 -12
-12 9 -31 15 -14 32 -21 40 -18 13 5 16 29 16 139 l1 133 49 -55 49 -55 1 34
c0 26 -12 49 -55 102 -52 65 -72 79 -88 62z"/>
<path d="M1227 834 c-4 -4 -7 -74 -7 -155 0 -130 -2 -149 -17 -159 -17 -9 -16
-11 6 -30 30 -26 49 -25 56 3 3 12 4 94 3 182 -3 135 -5 160 -18 163 -9 1 -19
0 -23 -4z"/>
<path d="M1370 691 c0 -124 -3 -152 -16 -166 -15 -15 -15 -17 1 -35 10 -11 26
-20 37 -20 17 0 18 12 18 185 0 178 -1 185 -20 185 -19 0 -20 -7 -20 -149z"/>
<path d="M1713 820 c-36 -21 -60 -55 -63 -85 -6 -59 1 -88 29 -116 35 -34 65
-40 33 -6 -31 33 -37 78 -18 119 21 43 57 63 105 60 20 -1 50 -4 66 -5 21 -1
30 3 30 13 0 40 -126 55 -182 20z"/>
<path d="M2034 679 c-40 -110 -65 -163 -77 -168 -17 -6 -17 -8 3 -26 30 -27
49 -12 75 59 l22 59 54 0 c50 0 54 -2 66 -31 15 -36 8 -62 -16 -62 -12 0 -10
-5 9 -20 28 -23 58 -22 73 1 9 14 -2 50 -93 292 -35 94 -47 83 -116 -104z m94
22 c16 -52 16 -51 -18 -51 -16 0 -30 3 -30 6 0 17 24 84 30 84 4 0 12 -17 18
-39z"/>
<path d="M2100 685 c0 -8 5 -15 10 -15 6 0 10 7 10 15 0 8 -4 15 -10 15 -5 0
-10 -7 -10 -15z"/>
<path d="M2327 834 c-4 -4 -7 -74 -7 -155 0 -122 -3 -149 -15 -157 -13 -7 -12
-12 9 -31 45 -42 55 -25 58 101 l3 113 24 -44 23 -45 15 27 c13 26 11 32 -29
110 -40 75 -63 99 -81 81z"/>
<path d="M2587 834 c-4 -4 -7 -73 -7 -154 0 -101 -4 -150 -12 -158 -16 -16 23
-58 46 -49 14 6 16 29 14 184 -3 151 -5 178 -18 181 -9 1 -19 0 -23 -4z"/>
<path d="M2726 824 c-3 -9 -6 -67 -6 -130 l0 -114 25 0 c23 0 25 4 25 40 l0
40 75 0 c60 0 77 3 82 16 9 24 -15 34 -89 34 l-68 0 0 40 0 40 68 0 c74 0 98
10 89 34 -9 24 -192 24 -201 0z"/>
<path d="M3015 815 c-33 -32 -34 -83 -2 -114 13 -12 44 -32 68 -44 40 -20 44
-26 47 -63 4 -57 -29 -84 -101 -84 -49 0 -50 0 -32 -20 13 -15 31 -20 68 -20
42 0 54 5 83 34 30 30 34 40 34 85 0 61 -23 90 -95 121 -36 16 -45 24 -45 44
0 35 30 50 77 37 27 -8 41 -7 51 1 24 21 -21 48 -80 48 -39 0 -54 -5 -73 -25z"/>
<path d="M2538 793 c-14 -15 -45 -65 -68 -110 -22 -46 -45 -83 -51 -83 -5 0
-15 12 -21 28 l-12 27 -4 -32 c-4 -36 23 -96 41 -90 7 2 25 30 40 63 16 32 35
70 44 83 22 35 33 11 33 -76 0 -44 4 -73 10 -73 18 0 21 23 18 159 l-3 132
-27 -28z"/>
<path d="M1333 790 c-16 -24 -18 -246 -3 -255 17 -11 21 17 18 148 -3 107 -5
124 -15 107z"/>
<path d="M207 782 c-15 -17 -17 -35 -15 -133 l3 -114 80 0 c126 0 175 33 175
120 0 69 -30 102 -112 121 -22 5 -28 3 -28 -10 0 -10 11 -19 30 -22 43 -9 80
-50 80 -89 0 -61 -77 -105 -161 -93 -23 3 -24 6 -29 122 -5 114 -6 118 -23 98z"/>
<path d="M975 790 c-3 -6 -6 -65 -6 -133 0 -95 2 -122 13 -122 10 0 14 31 16
133 2 121 -4 153 -23 122z"/>
<path d="M1183 789 c-8 -8 -13 -43 -13 -96 0 -49 -4 -83 -10 -83 -5 0 -10 3
-10 8 -1 4 -19 27 -40 52 l-40 45 4 -32 c6 -47 105 -167 123 -150 2 3 2 64 1
136 -2 106 -5 130 -15 120z"/>
<path d="M2028 772 c-24 -26 -104 -230 -94 -240 17 -16 39 21 80 134 25 70 45
128 43 130 -2 2 -15 -9 -29 -24z"/>
<path d="M2281 786 c-17 -21 -11 -251 7 -251 10 0 14 31 15 133 1 72 -1 132
-4 132 -4 0 -12 -6 -18 -14z"/>
<path d="M2693 789 c-9 -9 -13 -51 -13 -136 l0 -123 95 0 c77 0 95 3 95 15 0
11 -18 15 -77 17 l-78 3 -5 118 c-4 95 -7 116 -17 106z"/>
<path d="M2966 774 c-23 -60 8 -121 73 -147 49 -20 58 -34 37 -55 -12 -12 -31
-16 -66 -15 -59 3 -71 -21 -17 -31 74 -14 131 18 125 71 -2 22 -12 33 -48 50
-63 30 -94 66 -94 108 0 39 -1 42 -10 19z"/>
<path d="M572 748 c-43 -67 -9 -172 65 -203 110 -46 223 10 223 110 0 70 -53
125 -120 125 -31 0 -80 -28 -80 -45 0 -14 3 -14 23 -1 12 9 36 14 52 12 17 -2
36 -4 43 -5 18 -1 52 -61 52 -91 -1 -72 -104 -114 -181 -75 -58 30 -85 112
-59 179 13 35 6 33 -18 -6z"/>
<path d="M1625 750 c-33 -63 -9 -153 50 -190 20 -12 60 -23 100 -27 l66 -6 -3
84 c-3 70 -6 84 -20 87 -16 3 -18 -5 -18 -62 l0 -66 -37 0 c-92 0 -157 97
-123 184 13 35 4 33 -15 -4z"/>
<path d="M1745 768 c-23 -12 -45 -37 -45 -52 0 -5 6 -1 14 10 11 15 27 19 68
19 61 0 94 14 62 26 -28 11 -76 10 -99 -3z"/>
<path d="M2790 765 c0 -11 11 -15 39 -15 22 0 44 6 51 15 11 13 6 15 -39 15
-39 0 -51 -4 -51 -15z"/>
<path d="M3057 773 c-16 -15 -5 -23 32 -23 42 0 62 14 35 24 -21 8 -59 8 -67
-1z"/>
<path d="M1850 607 l0 -87 -66 0 c-76 0 -125 22 -162 73 -21 29 -23 30 -17 7
12 -42 52 -87 99 -109 35 -18 59 -21 118 -19 l73 3 3 85 c3 81 1 87 -23 110
l-25 23 0 -86z"/>
<path d="M2477 593 c-21 -40 -45 -73 -53 -73 -12 0 -12 -4 2 -25 24 -37 41
-31 69 26 19 37 25 62 23 97 l-3 47 -38 -72z"/>
<path d="M2790 625 c0 -11 11 -15 39 -15 22 0 44 6 51 15 11 13 6 15 -39 15
-39 0 -51 -4 -51 -15z"/>
<path d="M2060 575 c0 -10 10 -15 33 -15 22 0 36 -7 45 -21 18 -28 35 -11 26
25 -6 24 -11 26 -55 26 -37 0 -49 -4 -49 -15z"/>
<path d="M2885 531 c-3 -7 -46 -11 -102 -11 l-96 0 23 -25 c22 -23 30 -25 117
-25 77 0 95 3 100 16 11 29 -27 69 -42 45z"/>
</g>
</svg>
